<svg id="visual" viewBox="0 0 960 540" width="960" height="540" xmlns="http://www.w3.org/2000/svg" xmlns:xlink="http://www.w3.org/1999/xlink" version="1.1"><path d="M353 0L577 0L577 23L32 23L32 47L526 47L526 70L190 70L190 94L253 94L253 117L49 117L49 141L341 141L341 164L192 164L192 188L699 188L699 211L221 211L221 235L382 235L382 258L466 258L466 282L146 282L146 305L93 305L93 329L504 329L504 352L595 352L595 376L101 376L101 399L48 399L48 423L568 423L568 446L678 446L678 470L732 470L732 493L210 493L210 517L239 517L239 540L0 540L0 517L0 517L0 493L0 493L0 470L0 470L0 446L0 446L0 423L0 423L0 399L0 399L0 376L0 376L0 352L0 352L0 329L0 329L0 305L0 305L0 282L0 282L0 258L0 258L0 235L0 235L0 211L0 211L0 188L0 188L0 164L0 164L0 141L0 141L0 117L0 117L0 94L0 94L0 70L0 70L0 47L0 47L0 23L0 23L0 0L0 0Z" fill="#e5bff6"></path><path d="M306 0L440 0L440 23L136 23L136 47L705 47L705 70L19 70L19 94L402 94L402 117L273 117L273 141L703 141L703 164L249 164L249 188L61 188L61 211L307 211L307 235L254 235L254 258L222 258L222 282L15 282L15 305L53 305L53 329L382 329L382 352L195 352L195 376L406 376L406 399L270 399L270 423L201 423L201 446L461 446L461 470L243 470L243 493L127 493L127 517L464 517L464 540L0 540L0 517L0 517L0 493L0 493L0 470L0 470L0 446L0 446L0 423L0 423L0 399L0 399L0 376L0 376L0 352L0 352L0 329L0 329L0 305L0 305L0 282L0 282L0 258L0 258L0 235L0 235L0 211L0 211L0 188L0 188L0 164L0 164L0 141L0 141L0 117L0 117L0 94L0 94L0 70L0 70L0 47L0 47L0 23L0 23L0 0L0 0Z" fill="#e5bff6"></path><path d="M417 0L488 0L488 23L194 23L194 47L16 47L16 70L559 70L559 94L158 94L158 117L123 117L123 141L528 141L528 164L17 164L17 188L542 188L542 211L514 211L514 235L497 235L497 258L88 258L88 282L453 282L453 305L588 305L588 329L227 329L227 352L531 352L531 376L536 376L536 399L33 399L33 423L142 423L142 446L194 446L194 470L362 470L362 493L299 493L299 517L431 517L431 540L0 540L0 517L0 517L0 493L0 493L0 470L0 470L0 446L0 446L0 423L0 423L0 399L0 399L0 376L0 376L0 352L0 352L0 329L0 329L0 305L0 305L0 282L0 282L0 258L0 258L0 235L0 235L0 211L0 211L0 188L0 188L0 164L0 164L0 141L0 141L0 117L0 117L0 94L0 94L0 70L0 70L0 47L0 47L0 23L0 23L0 0L0 0Z" fill="#e5bff6"></path><path d="M32 0L520 0L520 23L224 23L224 47L565 47L565 70L584 70L584 94L465 94L465 117L195 117L195 141L298 141L298 164L115 164L115 188L155 188L155 211L455 211L455 235L415 235L415 258L539 258L539 282L72 282L72 305L140 305L140 329L61 329L61 352L370 352L370 376L110 376L110 399L322 399L322 423L93 423L93 446L570 446L570 470L112 470L112 493L490 493L490 517L195 517L195 540L0 540L0 517L0 517L0 493L0 493L0 470L0 470L0 446L0 446L0 423L0 423L0 399L0 399L0 376L0 376L0 352L0 352L0 329L0 329L0 305L0 305L0 282L0 282L0 258L0 258L0 235L0 235L0 211L0 211L0 188L0 188L0 164L0 164L0 141L0 141L0 117L0 117L0 94L0 94L0 70L0 70L0 47L0 47L0 23L0 23L0 0L0 0Z" fill="#e5bff6"></path><path d="M17 0L355 0L355 23L25 23L25 47L468 47L468 70L125 70L125 94L200 94L200 117L58 117L58 141L351 141L351 164L399 164L399 188L472 188L472 211L9 211L9 235L448 235L448 258L465 258L465 282L358 282L358 305L438 305L438 329L325 329L325 352L418 352L418 376L252 376L252 399L57 399L57 423L325 423L325 446L340 446L340 470L439 470L439 493L395 493L395 517L468 517L468 540L0 540L0 517L0 517L0 493L0 493L0 470L0 470L0 446L0 446L0 423L0 423L0 399L0 399L0 376L0 376L0 352L0 352L0 329L0 329L0 305L0 305L0 282L0 282L0 258L0 258L0 235L0 235L0 211L0 211L0 188L0 188L0 164L0 164L0 141L0 141L0 117L0 117L0 94L0 94L0 70L0 70L0 47L0 47L0 23L0 23L0 0L0 0Z" fill="#e5bff6"></path><path d="M253 0L207 0L207 23L63 23L63 47L250 47L250 70L284 70L284 94L231 94L231 117L436 117L436 141L98 141L98 164L450 164L450 188L316 188L316 211L43 211L43 235L286 235L286 258L444 258L444 282L274 282L274 305L81 305L81 329L24 329L24 352L316 352L316 376L122 376L122 399L339 399L339 423L236 423L236 446L408 446L408 470L66 470L66 493L298 493L298 517L150 517L150 540L0 540L0 517L0 517L0 493L0 493L0 470L0 470L0 446L0 446L0 423L0 423L0 399L0 399L0 376L0 376L0 352L0 352L0 329L0 329L0 305L0 305L0 282L0 282L0 258L0 258L0 235L0 235L0 211L0 211L0 188L0 188L0 164L0 164L0 141L0 141L0 117L0 117L0 94L0 94L0 70L0 70L0 47L0 47L0 23L0 23L0 0L0 0Z" fill="#e5bff6"></path><path d="M220 0L30 0L30 23L411 23L411 47L174 47L174 70L318 70L318 94L266 94L266 117L131 117L131 141L57 141L57 164L412 164L412 188L182 188L182 211L377 211L377 235L123 235L123 258L115 258L115 282L145 282L145 305L169 305L169 329L413 329L413 352L338 352L338 376L69 376L69 399L326 399L326 423L165 423L165 446L248 446L248 470L154 470L154 493L277 493L277 517L367 517L367 540L0 540L0 517L0 517L0 493L0 493L0 470L0 470L0 446L0 446L0 423L0 423L0 399L0 399L0 376L0 376L0 352L0 352L0 329L0 329L0 305L0 305L0 282L0 282L0 258L0 258L0 235L0 235L0 211L0 211L0 188L0 188L0 164L0 164L0 141L0 141L0 117L0 117L0 94L0 94L0 70L0 70L0 47L0 47L0 23L0 23L0 0L0 0Z" fill="#e5bff6"></path><path d="M141 0L241 0L241 23L48 23L48 47L222 47L222 70L21 70L21 94L264 94L264 117L7 117L7 141L136 141L136 164L91 164L91 188L95 188L95 211L101 211L101 235L330 235L330 258L75 258L75 282L338 282L338 305L96 305L96 329L73 329L73 352L83 352L83 376L329 376L329 399L318 399L318 423L10 423L10 446L209 446L209 470L15 470L15 493L213 493L213 517L351 517L351 540L0 540L0 517L0 517L0 493L0 493L0 470L0 470L0 446L0 446L0 423L0 423L0 399L0 399L0 376L0 376L0 352L0 352L0 329L0 329L0 305L0 305L0 282L0 282L0 258L0 258L0 235L0 235L0 211L0 211L0 188L0 188L0 164L0 164L0 141L0 141L0 117L0 117L0 94L0 94L0 70L0 70L0 47L0 47L0 23L0 23L0 0L0 0Z" fill="#e5bff6"></path><path d="M247 0L27 0L27 23L239 23L239 47L268 47L268 70L171 70L171 94L240 94L240 117L3 117L3 141L174 141L174 164L154 164L154 188L64 188L64 211L281 211L281 235L270 235L270 258L115 258L115 282L180 282L180 305L263 305L263 329L5 329L5 352L43 352L43 376L206 376L206 399L67 399L67 423L268 423L268 446L5 446L5 470L71 470L71 493L248 493L248 517L134 517L134 540L0 540L0 517L0 517L0 493L0 493L0 470L0 470L0 446L0 446L0 423L0 423L0 399L0 399L0 376L0 376L0 352L0 352L0 329L0 329L0 305L0 305L0 282L0 282L0 258L0 258L0 235L0 235L0 211L0 211L0 188L0 188L0 164L0 164L0 141L0 141L0 117L0 117L0 94L0 94L0 70L0 70L0 47L0 47L0 23L0 23L0 0L0 0Z" fill="#e5bff6"></path><path d="M20 0L182 0L182 23L68 23L68 47L185 47L185 70L205 70L205 94L30 94L30 117L2 117L2 141L233 141L233 164L226 164L226 188L189 188L189 211L189 211L189 235L154 235L154 258L116 258L116 282L20 282L20 305L127 305L127 329L237 329L237 352L7 352L7 376L224 376L224 399L190 399L190 423L212 423L212 446L213 446L213 470L90 470L90 493L132 493L132 517L55 517L55 540L0 540L0 517L0 517L0 493L0 493L0 470L0 470L0 446L0 446L0 423L0 423L0 399L0 399L0 376L0 376L0 352L0 352L0 329L0 329L0 305L0 305L0 282L0 282L0 258L0 258L0 235L0 235L0 211L0 211L0 188L0 188L0 164L0 164L0 141L0 141L0 117L0 117L0 94L0 94L0 70L0 70L0 47L0 47L0 23L0 23L0 0L0 0Z" fill="#e5bff6"></path><path d="M37 0L82 0L82 23L21 23L21 47L115 47L115 70L47 70L47 94L41 94L41 117L139 117L139 141L96 141L96 164L92 164L92 188L53 188L53 211L125 211L125 235L95 235L95 258L94 258L94 282L140 282L140 305L19 305L19 329L41 329L41 352L102 352L102 376L160 376L160 399L101 399L101 423L73 423L73 446L122 446L122 470L77 470L77 493L130 493L130 517L165 517L165 540L0 540L0 517L0 517L0 493L0 493L0 470L0 470L0 446L0 446L0 423L0 423L0 399L0 399L0 376L0 376L0 352L0 352L0 329L0 329L0 305L0 305L0 282L0 282L0 258L0 258L0 235L0 235L0 211L0 211L0 188L0 188L0 164L0 164L0 141L0 141L0 117L0 117L0 94L0 94L0 70L0 70L0 47L0 47L0 23L0 23L0 0L0 0Z" fill="#e5bff6"></path><path d="M26 0L45 0L45 23L58 23L58 47L56 47L56 70L46 70L46 94L31 94L31 117L18 117L18 141L100 141L100 164L15 164L15 188L45 188L45 211L83 211L83 235L117 235L117 258L82 258L82 282L116 282L116 305L89 305L89 329L58 329L58 352L56 352L56 376L57 376L57 399L98 399L98 423L81 423L81 446L77 446L77 470L57 470L57 493L119 493L119 517L60 517L60 540L0 540L0 517L0 517L0 493L0 493L0 470L0 470L0 446L0 446L0 423L0 423L0 399L0 399L0 376L0 376L0 352L0 352L0 329L0 329L0 305L0 305L0 282L0 282L0 258L0 258L0 235L0 235L0 211L0 211L0 188L0 188L0 164L0 164L0 141L0 141L0 117L0 117L0 94L0 94L0 70L0 70L0 47L0 47L0 23L0 23L0 0L0 0Z" fill="#e5bff6"></path></svg>